<mxfile host="65bd71144e">
    <diagram id="Bko49ULKdNFN6TQIBJdv" name="Page-1">
        <mxGraphModel dx="1240" dy="1084" grid="1" gridSize="10" guides="1" tooltips="1" connect="1" arrows="1" fold="1" page="1" pageScale="1" pageWidth="850" pageHeight="1100" math="0" shadow="0">
            <root>
                <mxCell id="0"/>
                <mxCell id="1" parent="0"/>
                <mxCell id="37" value="" style="rounded=0;whiteSpace=wrap;html=1;fillStyle=solid;fillColor=#333333;" parent="1" vertex="1">
                    <mxGeometry x="130" width="700" height="710" as="geometry"/>
                </mxCell>
                <mxCell id="2" value="&lt;b&gt;&lt;font style=&quot;font-size: 14px;&quot;&gt;Система образовательного менеджмента&lt;/font&gt;&lt;/b&gt;&lt;br&gt;[Software system]&lt;br&gt;&lt;br&gt;&lt;br&gt;&lt;font style=&quot;font-size: 10px;&quot;&gt;Позволяет пользователям хранить информацию о студентах и их успеваемости, формировать отчеты&lt;/font&gt;&amp;nbsp;" style="whiteSpace=wrap;html=1;aspect=fixed;fillColor=#0050ef;fontColor=#ffffff;strokeColor=#001DBC;" parent="1" vertex="1">
                    <mxGeometry x="150" y="277" width="190" height="190" as="geometry"/>
                </mxCell>
                <mxCell id="4" value="&lt;b&gt;Администратор&lt;/b&gt;&lt;br&gt;&lt;font style=&quot;font-size: 12px;&quot;&gt;[Person]&lt;br style=&quot;&quot;&gt;&lt;br&gt;&lt;br&gt;Пользователь с правами администратора&lt;br&gt;&lt;/font&gt;" style="rounded=1;whiteSpace=wrap;html=1;fontSize=14;fillColor=#76608a;strokeColor=#432D57;fontColor=#ffffff;" parent="1" vertex="1">
                    <mxGeometry x="155" y="14" width="185" height="130" as="geometry"/>
                </mxCell>
                <mxCell id="5" value="" style="endArrow=classic;html=1;fontSize=10;exitX=0.5;exitY=1;exitDx=0;exitDy=0;entryX=0.5;entryY=0;entryDx=0;entryDy=0;strokeColor=#FFFFFF;" parent="1" source="4" target="2" edge="1">
                    <mxGeometry width="50" height="50" relative="1" as="geometry">
                        <mxPoint x="230" y="195" as="sourcePoint"/>
                        <mxPoint x="250" y="285" as="targetPoint"/>
                    </mxGeometry>
                </mxCell>
                <mxCell id="9" value="&lt;span style=&quot;&quot;&gt;Загружает и просматривает&lt;br&gt;информацию о студентах&lt;br&gt;Подтверждает изменение&lt;br&gt;персональных данных&lt;br&gt;Формрует отчеты&lt;/span&gt;" style="edgeLabel;html=1;align=center;verticalAlign=middle;resizable=0;points=[];fontSize=12;fontColor=#FFFFFF;labelBackgroundColor=#333333;" parent="5" vertex="1" connectable="0">
                    <mxGeometry x="-0.3001" relative="1" as="geometry">
                        <mxPoint x="1" y="14" as="offset"/>
                    </mxGeometry>
                </mxCell>
                <mxCell id="14" value="&lt;font style=&quot;&quot;&gt;&lt;b&gt;Преподаватель&lt;br&gt;&lt;/b&gt;&lt;/font&gt;&lt;font style=&quot;font-size: 12px;&quot;&gt;[Person]&lt;br style=&quot;&quot;&gt;&lt;br&gt;&lt;br&gt;Внутренний пользователь&lt;/font&gt;" style="rounded=1;whiteSpace=wrap;html=1;fontSize=14;fillColor=#76608a;fontColor=#ffffff;strokeColor=#432D57;" parent="1" vertex="1">
                    <mxGeometry x="580" y="14" width="185" height="110" as="geometry"/>
                </mxCell>
                <mxCell id="15" value="" style="endArrow=classic;html=1;fontSize=10;exitX=0.5;exitY=1;exitDx=0;exitDy=0;entryX=1;entryY=0.25;entryDx=0;entryDy=0;strokeColor=#FFFFFF;" parent="1" source="14" target="2" edge="1">
                    <mxGeometry width="50" height="50" relative="1" as="geometry">
                        <mxPoint x="257.5" y="185" as="sourcePoint"/>
                        <mxPoint x="290" y="275" as="targetPoint"/>
                    </mxGeometry>
                </mxCell>
                <mxCell id="16" value="&lt;span style=&quot;&quot;&gt;Загружает и просматривает&lt;br&gt;&amp;nbsp;информацию&lt;br&gt;об успеваемости студента&lt;br&gt;Формирует отчеты&lt;br&gt;&lt;/span&gt;" style="edgeLabel;html=1;align=center;verticalAlign=middle;resizable=0;points=[];fontSize=12;labelBackgroundColor=#333333;fontColor=#FFFFFF;" parent="15" vertex="1" connectable="0">
                    <mxGeometry x="-0.3001" relative="1" as="geometry">
                        <mxPoint x="-56" y="21" as="offset"/>
                    </mxGeometry>
                </mxCell>
                <mxCell id="19" value="" style="endArrow=classic;html=1;fontSize=10;exitX=0.25;exitY=0;exitDx=0;exitDy=0;entryX=1;entryY=0.75;entryDx=0;entryDy=0;strokeColor=#FFFFFF;" parent="1" source="35" target="2" edge="1">
                    <mxGeometry width="50" height="50" relative="1" as="geometry">
                        <mxPoint x="704" y="615" as="sourcePoint"/>
                        <mxPoint x="350" y="287" as="targetPoint"/>
                    </mxGeometry>
                </mxCell>
                <mxCell id="20" value="&lt;span style=&quot;&quot;&gt;Просматривает информацию&lt;br&gt;Создает запрос на изменение&lt;br&gt;&amp;nbsp;персональных данных&lt;br&gt;&lt;/span&gt;" style="edgeLabel;html=1;align=center;verticalAlign=middle;resizable=0;points=[];fontSize=12;fontColor=#FFFFFF;labelBackgroundColor=#333333;" parent="19" vertex="1" connectable="0">
                    <mxGeometry x="-0.3001" relative="1" as="geometry">
                        <mxPoint x="-65" y="-23" as="offset"/>
                    </mxGeometry>
                </mxCell>
                <mxCell id="21" value="" style="endArrow=classic;html=1;fontSize=10;exitX=0.5;exitY=0;exitDx=0;exitDy=0;entryX=0.5;entryY=1;entryDx=0;entryDy=0;strokeColor=#FFFFFF;" parent="1" source="36" target="2" edge="1">
                    <mxGeometry width="50" height="50" relative="1" as="geometry">
                        <mxPoint x="245" y="595" as="sourcePoint"/>
                        <mxPoint x="350" y="287" as="targetPoint"/>
                    </mxGeometry>
                </mxCell>
                <mxCell id="22" value="&lt;span style=&quot;&quot;&gt;Просматривает ограниченную&lt;br&gt;&amp;nbsp;информацию&lt;br&gt;&lt;/span&gt;" style="edgeLabel;html=1;align=center;verticalAlign=middle;resizable=0;points=[];fontSize=12;fontColor=#FFFFFF;labelBackgroundColor=#333333;" parent="21" vertex="1" connectable="0">
                    <mxGeometry x="-0.3001" relative="1" as="geometry">
                        <mxPoint y="-16" as="offset"/>
                    </mxGeometry>
                </mxCell>
                <mxCell id="23" value="&lt;b&gt;&lt;font style=&quot;font-size: 14px;&quot;&gt;Система форумов&lt;/font&gt;&lt;/b&gt;&lt;br&gt;[Software system]&lt;br&gt;&lt;br&gt;&lt;br&gt;&lt;font style=&quot;font-size: 10px;&quot;&gt;Позволяет общаться родителям и преподавателям&lt;/font&gt;" style="whiteSpace=wrap;html=1;aspect=fixed;fillColor=#647687;fontColor=#ffffff;strokeColor=#314354;" parent="1" vertex="1">
                    <mxGeometry x="650" y="303" width="138" height="138" as="geometry"/>
                </mxCell>
                <mxCell id="25" value="" style="endArrow=classic;html=1;fontSize=10;exitX=0.75;exitY=1;exitDx=0;exitDy=0;entryX=0.5;entryY=0;entryDx=0;entryDy=0;rounded=1;dashed=1;strokeColor=#FFFFFF;" parent="1" source="14" target="23" edge="1">
                    <mxGeometry width="50" height="50" relative="1" as="geometry">
                        <mxPoint x="550" y="173" as="sourcePoint"/>
                        <mxPoint x="387.5" y="275" as="targetPoint"/>
                    </mxGeometry>
                </mxCell>
                <mxCell id="26" value="&lt;span style=&quot;&quot;&gt;Отправляет сообщение&lt;br&gt;&lt;/span&gt;" style="edgeLabel;html=1;align=center;verticalAlign=middle;resizable=0;points=[];fontSize=12;fontColor=#FFFFFF;labelBackgroundColor=#333333;" parent="25" vertex="1" connectable="0">
                    <mxGeometry x="-0.3001" relative="1" as="geometry">
                        <mxPoint x="1" y="14" as="offset"/>
                    </mxGeometry>
                </mxCell>
                <mxCell id="28" value="" style="endArrow=classic;html=1;fontSize=10;exitX=0.5;exitY=0;exitDx=0;exitDy=0;entryX=0.5;entryY=1;entryDx=0;entryDy=0;rounded=1;dashed=1;strokeColor=#FFFFFF;" parent="1" source="35" target="23" edge="1">
                    <mxGeometry width="50" height="50" relative="1" as="geometry">
                        <mxPoint x="719" y="595" as="sourcePoint"/>
                        <mxPoint x="779" y="515" as="targetPoint"/>
                    </mxGeometry>
                </mxCell>
                <mxCell id="29" value="&lt;span style=&quot;&quot;&gt;Отправляет сообщение&lt;br&gt;&lt;/span&gt;" style="edgeLabel;html=1;align=center;verticalAlign=middle;resizable=0;points=[];fontSize=12;fontColor=#FFFFFF;labelBackgroundColor=#333333;" parent="28" vertex="1" connectable="0">
                    <mxGeometry x="-0.3001" relative="1" as="geometry">
                        <mxPoint x="11" y="-29" as="offset"/>
                    </mxGeometry>
                </mxCell>
                <mxCell id="33" value="" style="endArrow=classic;html=1;fontSize=10;exitX=1;exitY=0.5;exitDx=0;exitDy=0;rounded=1;entryX=0;entryY=0.5;entryDx=0;entryDy=0;dashed=1;dashPattern=12 12;strokeColor=#FFFFFF;" parent="1" source="2" target="23" edge="1">
                    <mxGeometry width="50" height="50" relative="1" as="geometry">
                        <mxPoint x="520" y="397" as="sourcePoint"/>
                        <mxPoint x="600" y="315" as="targetPoint"/>
                    </mxGeometry>
                </mxCell>
                <mxCell id="34" value="&lt;span style=&quot;&quot;&gt;Аутентифицирует пользователя&amp;nbsp;&lt;br&gt;&lt;/span&gt;" style="edgeLabel;html=1;align=center;verticalAlign=middle;resizable=0;points=[];fontSize=12;labelBackgroundColor=#333333;fontColor=#FFFFFF;" parent="33" vertex="1" connectable="0">
                    <mxGeometry x="-0.3001" relative="1" as="geometry">
                        <mxPoint x="62" y="-17" as="offset"/>
                    </mxGeometry>
                </mxCell>
                <mxCell id="35" value="&lt;font style=&quot;&quot;&gt;&lt;b&gt;Родитель,&lt;br&gt;Студент старше 18&lt;br&gt;&lt;/b&gt;&lt;/font&gt;&lt;font style=&quot;font-size: 12px;&quot;&gt;[Person]&lt;br style=&quot;&quot;&gt;&lt;br&gt;Внешний пользователь&lt;/font&gt;" style="rounded=1;whiteSpace=wrap;html=1;fontSize=14;fillColor=#6d8764;fontColor=#ffffff;strokeColor=#3A5431;" parent="1" vertex="1">
                    <mxGeometry x="626.5" y="565" width="185" height="110" as="geometry"/>
                </mxCell>
                <mxCell id="36" value="&lt;font style=&quot;&quot;&gt;&lt;b&gt;Студент до 18&lt;br&gt;&lt;/b&gt;&lt;/font&gt;&lt;font style=&quot;font-size: 12px;&quot;&gt;[Person]&lt;br style=&quot;&quot;&gt;&lt;br&gt;Внешний пользователь&lt;/font&gt;" style="rounded=1;whiteSpace=wrap;html=1;fontSize=14;fillColor=#6d8764;fontColor=#ffffff;strokeColor=#3A5431;" parent="1" vertex="1">
                    <mxGeometry x="152.5" y="565" width="185" height="110" as="geometry"/>
                </mxCell>
            </root>
        </mxGraphModel>
    </diagram>
</mxfile>